<?xml version="1.0" encoding="UTF-8" standalone="no"?>
<!-- Created with Inkscape (http://www.inkscape.org/) -->

<svg
   xmlns:dc="http://purl.org/dc/elements/1.1/"
   xmlns:cc="http://creativecommons.org/ns#"
   xmlns:rdf="http://www.w3.org/1999/02/22-rdf-syntax-ns#"
   xmlns:svg="http://www.w3.org/2000/svg"
   xmlns="http://www.w3.org/2000/svg"
   xmlns:xlink="http://www.w3.org/1999/xlink"
   xmlns:sodipodi="http://sodipodi.sourceforge.net/DTD/sodipodi-0.dtd"
   xmlns:inkscape="http://www.inkscape.org/namespaces/inkscape"
   width="1052.3622"
   height="744.09448"
   id="svg4034"
   version="1.1"
   inkscape:version="0.48.3.1 r9886"
   sodipodi:docname="disegno.svg">
  <defs
     id="defs3" />
  <sodipodi:namedview
     inkscape:document-units="mm"
     id="base"
     pagecolor="#ffffff"
     bordercolor="#666666"
     borderopacity="1.0"
     inkscape:pageopacity="0.0"
     inkscape:pageshadow="2"
     inkscape:zoom="0.65193764"
     inkscape:cx="812.59456"
     inkscape:cy="380.37562"
     inkscape:current-layer="layer1"
     showgrid="true"
     units="mm"
     inkscape:snap-grids="false"
     inkscape:window-width="1215"
     inkscape:window-height="744"
     inkscape:window-x="65"
     inkscape:window-y="24"
     inkscape:window-maximized="1">
    <inkscape:grid
       type="xygrid"
       id="grid4106"
       empspacing="5"
       visible="true"
       enabled="true"
       snapvisiblegridlinesonly="true" />
  </sodipodi:namedview>
  <metadata
     id="metadata4">
    <rdf:RDF>
      <cc:Work
         rdf:about="">
        <dc:format>image/svg+xml</dc:format>
        <dc:type
           rdf:resource="http://purl.org/dc/dcmitype/StillImage" />
        <dc:title></dc:title>
      </cc:Work>
    </rdf:RDF>
  </metadata>
  <g
     inkscape:label="Layer 1"
     inkscape:groupmode="layer"
     id="layer1"
     transform="translate(0,-308.2677)">
    <path
       style="fill:none;stroke:#000000;stroke-width:1px;stroke-linecap:butt;stroke-linejoin:miter;stroke-opacity:1"
       d="m 69,159.09448 c -14,9 -19.722277,5.44455 -37,25 -28.4786558,32.233 -15,48 -15,48 l 35,-9 c 0,0 -27,109 197,103 224,-6 71,-1 177,-3 106,-2 172,-45 181,-68 9,-23 -134,5 -167,-14 -33,-19 -13,-138 -115,-156.999998 -102,-19 -140.81138,-18.956675 -170.75361,10.26083 L 140.47834,117.32643 C 118.01444,141.73501 105.43501,148.15891 69,159.09448"
       id="path4058"
       inkscape:connector-curvature="0"
       transform="translate(0,308.2677)"
       sodipodi:nodetypes="csccsssssccc" />
    <rect
       style="fill:#ffff00"
       id="rect4098"
       height="88.727951"
       x="152.05952"
       y="371.83356"
       width="17.716536"
       inkscape:tile-cx="140.97555"
       inkscape:tile-cy="140.33596"
       inkscape:tile-w="17.716536"
       inkscape:tile-h="88.727951"
       inkscape:tile-x0="132.11728"
       inkscape:tile-y0="95.971985" />
    <path
       style="font-size:medium;font-style:normal;font-variant:normal;font-weight:normal;font-stretch:normal;text-indent:0;text-align:start;text-decoration:none;line-height:normal;letter-spacing:normal;word-spacing:normal;text-transform:none;direction:ltr;block-progression:tb;writing-mode:lr-tb;text-anchor:start;baseline-shift:baseline;color:#000000;fill-opacity:1;fill-rule:nonzero;stroke:none;stroke-width:1;marker:none;visibility:visible;display:inline;overflow:visible;enable-background:accumulate;font-family:Sans;-inkscape-font-specification:Sans"
       d="M 851.625,356.375 C 769.74823,356.22711 702.97341,408.62629 701.28125,474 l -0.90625,0 -1.46875,0 1.15625,0.90625 1.15625,0.875 c 1.8e-4,0.15792 4.3e-4,0.31541 0,0.46875 l 0,0.5 0.5,0 0.8125,0 74.78125,56.5 45.84375,34.65625 0.125,0.0937 0.15625,0 60.46875,0 0.1875,0 0.125,-0.0937 43.9375,-35.75 73.06255,-59.40625 1.125,-0.90625 -1.125,0 C 998.09382,407.40235 932.0611,356.52029 851.625,356.375 z m 0,1 c 79.85647,0.14424 145.22796,50.5497 148.5625,114.15625 0,0 -0.134,-0.16379 -0.6875,1.3125 L 927.53125,531.375 883.75,567 823.625,567 777.90625,532.4375 703,475.84375 l -0.125,-0.0937 -0.1875,0 -0.46875,0 c -4e-5,-0.072 -5.9e-4,-0.14786 0,-0.21875 l 0,-0.25 -0.1875,-0.15625 -0.15625,-0.125 0.375,0 0,-0.5 c 1.34649,-64.93946 67.71606,-117.27249 149.375,-117.125 z"
       id="path4108"
       inkscape:connector-curvature="0"
       sodipodi:nodetypes="sccccccccccccccccccccsccccccccccccccccccc" />
    <path
       inkscape:tile-y0="417.44306"
       inkscape:tile-x0="657.64275"
       sodipodi:nodetypes="csscccscc"
       inkscape:connector-curvature="0"
       id="use4164"
       d="m 723.14572,573.65125 c 11.52109,68.22893 11.30952,41.51004 11.03332,61.80822 -0.27952,20.54171 0.86419,30.837 -29.90454,55.21809 -30.76873,24.3811 -26.25698,23.56134 -26.25698,23.56134 0,0 -18.21784,18.67455 5.5875,14.35887 24.8512,-1.04978 39.14337,-12.41971 46.48382,-20.61384 18.25214,-20.68336 19.34626,-10.93279 40.04608,-63.94792 20.69981,-53.0151 18.61935,-70.06318 18.61935,-70.06318 z"
       style="fill:none;stroke:#000000;stroke-width:0.90931964px;stroke-linecap:butt;stroke-linejoin:miter;stroke-opacity:1" />
    <use
       x="0"
       y="0"
       inkscape:tiled-clone-of="#use4164"
       xlink:href="#use4164"
       transform="matrix(-1,0,0,1,1699.7713,2.3932475e-6)"
       id="use4178"
       width="1052.3622"
       height="744.09448" />
    <path
       style="fill:none;stroke:#000000;stroke-width:1px;stroke-linecap:butt;stroke-linejoin:miter;stroke-opacity:1"
       d="m 820.12422,814.3018 21.18863,-97.21837 c 0,0 4.98556,-32.40613 13.71028,-34.89891 8.72473,-2.49278 13.71029,36.1453 13.71029,36.1453 l 14.95667,95.97198 -12.4639,44.87002 -36.14529,0 z"
       id="path4184"
       inkscape:connector-curvature="0"
       sodipodi:nodetypes="ccsccccc" />
    <path
       style="fill:none;stroke:#000000;stroke-width:1px;stroke-linecap:butt;stroke-linejoin:miter;stroke-opacity:1"
       d="m 62.319471,985.05715 c 8.72473,-2.49278 105.943099,-1.24639 105.943099,-1.24639 l -1.24638,-128.37811 -74.783369,1.24639 1.24639,86.00087 c 0,0 -18.69585,3.73917 -29.91335,26.17418 -11.21751,22.43501 -1.24639,16.20306 -1.24639,16.20306 z"
       id="path4186"
       inkscape:connector-curvature="0"
       inkscape:tile-cx="113.24894"
       inkscape:tile-cy="612.37465"
       inkscape:tile-w="110.02727"
       inkscape:tile-h="130.41939"
       inkscape:tile-x0="58.2353"
       inkscape:tile-y0="547.16495" />
    <use
       x="0"
       y="0"
       inkscape:tiled-clone-of="#path4186"
       xlink:href="#path4186"
       transform="matrix(-1,0,0,1,370.17765,-1.2463894)"
       id="use4190"
       width="1052.3622"
       height="744.09448" />
    <use
       x="0"
       y="0"
       inkscape:tiled-clone-of="#path4186"
       xlink:href="#path4186"
       transform="translate(267.41734,0)"
       id="use4192"
       width="1052.3622"
       height="744.09448" />
    <use
       x="0"
       y="0"
       inkscape:tiled-clone-of="#path4186"
       xlink:href="#path4186"
       transform="matrix(-1,0,0,1,633.85582,1.2463894)"
       id="use4194"
       width="1052.3622"
       height="744.09448" />
    <path
       style="font-size:medium;font-style:normal;font-variant:normal;font-weight:normal;font-stretch:normal;text-indent:0;text-align:start;text-decoration:none;line-height:normal;letter-spacing:normal;word-spacing:normal;text-transform:none;direction:ltr;block-progression:tb;writing-mode:lr-tb;text-anchor:start;baseline-shift:baseline;color:#000000;fill-opacity:1;fill-rule:nonzero;stroke:none;stroke-width:1;marker:none;visibility:visible;display:inline;overflow:visible;enable-background:accumulate;font-family:Sans;-inkscape-font-specification:Sans"
       d="m 105.4375,722.8125 0,0.5 0,63.5625 0,0.5 0.5,0 124.1875,0 0.5,0 0,-0.5 0,-63.5625 0,-0.5 -0.5,0 -124.1875,0 -0.5,0 z m 1,1 123.1875,0 0,62.5625 -123.1875,0 0,-62.5625 z"
       id="rect4196"
       inkscape:connector-curvature="0" />
    <use
       x="0"
       y="0"
       inkscape:tiled-clone-of="#rect4196"
       xlink:href="#rect4196"
       id="use4198"
       transform="translate(284.17678,1.2463895)"
       width="1052.3622"
       height="744.09448" />
    <use
       x="0"
       y="0"
       inkscape:tiled-clone-of="#rect4098"
       xlink:href="#rect4098"
       id="use4204"
       transform="translate(692.99252,421.27963)"
       width="1052.3622"
       height="744.09448" />
    <use
       x="0"
       y="0"
       inkscape:tiled-clone-of="#rect4098"
       xlink:href="#rect4098"
       transform="translate(694.50599,119.65339)"
       id="use4206"
       width="1052.3622"
       height="744.09448" />
    <use
       x="0"
       y="0"
       inkscape:tiled-clone-of="#rect4098"
       xlink:href="#rect4098"
       transform="translate(783.26672,154.55229)"
       id="use4208"
       width="1052.3622"
       height="744.09448" />
    <use
       x="0"
       y="0"
       inkscape:tiled-clone-of="#rect4098"
       xlink:href="#rect4098"
       transform="translate(18.250704,231.82844)"
       id="use4210"
       width="1052.3622"
       height="744.09448" />
    <use
       x="0"
       y="0"
       inkscape:tiled-clone-of="#rect4098"
       xlink:href="#rect4098"
       transform="translate(232.89677,230.58204)"
       id="use4212"
       width="1052.3622"
       height="744.09448" />
    <use
       x="0"
       y="0"
       inkscape:tiled-clone-of="#rect4098"
       xlink:href="#rect4098"
       transform="translate(46.205439,299.13347)"
       id="use4214"
       width="1052.3622"
       height="744.09448" />
    <use
       x="0"
       y="0"
       inkscape:tiled-clone-of="#rect4098"
       xlink:href="#rect4098"
       transform="translate(-30.803616,300.37985)"
       id="use4216"
       width="1052.3622"
       height="744.09448" />
    <use
       x="0"
       y="0"
       inkscape:tiled-clone-of="#rect4098"
       xlink:href="#rect4098"
       transform="translate(593.90456,158.29146)"
       id="use4218"
       width="1052.3622"
       height="744.09448" />
    <use
       x="0"
       y="0"
       inkscape:tiled-clone-of="#rect4098"
       xlink:href="#rect4098"
       transform="translate(9.6150117,376.40961)"
       id="use4220"
       width="1052.3622"
       height="744.09448" />
    <use
       x="0"
       y="0"
       inkscape:tiled-clone-of="#rect4098"
       xlink:href="#rect4098"
       transform="matrix(0.62737327,-0.77871868,0.77871868,0.62737327,-377.649,341.46908)"
       id="use4222"
       width="1052.3622"
       height="744.09448" />
    <use
       x="0"
       y="0"
       inkscape:tiled-clone-of="#rect4098"
       xlink:href="#rect4098"
       transform="translate(80.214065,437.48269)"
       id="use4226"
       width="1052.3622"
       height="744.09448" />
    <use
       x="0"
       y="0"
       inkscape:tiled-clone-of="#rect4098"
       xlink:href="#rect4098"
       transform="translate(-31.693896,438.72908)"
       id="use4228"
       width="1052.3622"
       height="744.09448" />
    <path
       sodipodi:type="arc"
       style="fill:#ff0000"
       id="path4230"
       sodipodi:cx="43.623631"
       sodipodi:cy="205.65425"
       sodipodi:rx="4.9855576"
       sodipodi:ry="4.9855576"
       d="m 48.609188,205.65425 a 4.9855576,4.9855576 0 1 1 -9.971115,0 4.9855576,4.9855576 0 1 1 9.971115,0 z"
       transform="translate(-2.4927788,307.02131)" />
    <path
       sodipodi:type="arc"
       style="fill:#ff0000"
       id="path4235"
       sodipodi:cx="131.49408"
       sodipodi:cy="155.17548"
       sodipodi:rx="3.1159735"
       sodipodi:ry="8.101531"
       d="m 134.61005,155.17548 a 3.1159735,8.101531 0 1 1 -6.23194,0 3.1159735,8.101531 0 1 1 6.23194,0 z"
       transform="translate(0,308.2677)" />
    <path
       style="fill:#ff0000;stroke:#ff0000;stroke-width:1px;stroke-linecap:butt;stroke-linejoin:miter;stroke-opacity:1"
       d="m 29.740951,510.8659 c 0,0 8.731235,-12.32179 16.354275,-7.56043 6.64035,4.14757 7.697712,16.30634 7.697712,16.30634 -8.134772,-13.16201 -4.419086,-23.31788 -24.051987,-8.74591 z"
       id="path4237"
       inkscape:connector-curvature="0"
       sodipodi:nodetypes="cscc" />
    <path
       sodipodi:type="arc"
       style="fill:#ff0000;stroke:#ff0000;stroke-opacity:1"
       id="path4747"
       sodipodi:cx="265.36279"
       sodipodi:cy="127.47109"
       sodipodi:rx="10.737224"
       sodipodi:ry="9.2033339"
       d="m 276.10002,127.47109 a 10.737224,9.2033339 0 1 1 -21.47445,0 10.737224,9.2033339 0 1 1 21.47445,0 z"
       transform="matrix(0.55269809,0,0,1.1716864,85.005366,295.72409)"
       inkscape:tile-cx="265.36279"
       inkscape:tile-cy="127.47109"
       inkscape:tile-w="21.474447"
       inkscape:tile-h="18.406668"
       inkscape:tile-x0="254.62557"
       inkscape:tile-y0="118.26776" />
    <use
       x="0"
       y="0"
       inkscape:tiled-clone-of="#path4747"
       xlink:href="#path4747"
       transform="matrix(1.7375533,0,0,1,-187.52675,-40.336644)"
       id="use4749"
       width="1052.3622"
       height="744.09448" />
    <use
       x="0"
       y="0"
       inkscape:tiled-clone-of="#path4747"
       xlink:href="#path4747"
       transform="translate(-28.108265,21.020932)"
       id="use4751"
       width="1052.3622"
       height="744.09448" />
    <use
       x="0"
       y="0"
       inkscape:tiled-clone-of="#path4747"
       xlink:href="#path4747"
       transform="matrix(1.6051506,0,0,0.86287159,-134.50151,101.41853)"
       id="use4753"
       width="1052.3622"
       height="744.09448" />
    <use
       x="0"
       y="0"
       inkscape:tiled-clone-of="#path4747"
       xlink:href="#path4747"
       transform="matrix(1.5005325,0,0,1,-80.454774,1.6756377)"
       id="use4755"
       width="1052.3622"
       height="744.09448" />
    <use
       x="0"
       y="0"
       inkscape:tiled-clone-of="#path4747"
       xlink:href="#path4747"
       transform="translate(24.963217,-33.834636)"
       id="use4757"
       width="1052.3622"
       height="744.09448" />
    <use
       x="0"
       y="0"
       inkscape:tiled-clone-of="#path4747"
       xlink:href="#path4747"
       transform="translate(53.680685,31.821252)"
       id="use4759"
       width="1052.3622"
       height="744.09448" />
    <use
       x="0"
       y="0"
       inkscape:tiled-clone-of="#path4747"
       xlink:href="#path4747"
       transform="translate(68.406441,-26.575382)"
       id="use4761"
       width="1052.3622"
       height="744.09448" />
    <use
       x="0"
       y="0"
       inkscape:tiled-clone-of="#path4747"
       xlink:href="#path4747"
       transform="matrix(1.5005325,0,0,1,-79.981079,76.882991)"
       id="use4763"
       width="1052.3622"
       height="744.09448" />
    <use
       x="0"
       y="0"
       inkscape:tiled-clone-of="#path4747"
       xlink:href="#path4747"
       transform="matrix(1.7507988,0,0,1,-64.804344,-1.8073444)"
       id="use4765"
       width="1052.3622"
       height="744.09448" />
    <use
       x="0"
       y="0"
       inkscape:tiled-clone-of="#path4747"
       xlink:href="#path4747"
       transform="matrix(1.7215191,0,0,1.2067937,-83.583341,-66.770139)"
       id="use4767"
       width="1052.3622"
       height="744.09448" />
    <use
       x="0"
       y="0"
       inkscape:tiled-clone-of="#path4747"
       xlink:href="#path4747"
       transform="translate(117.87461,37.741432)"
       id="use4769"
       width="1052.3622"
       height="744.09448" />
    <use
       x="0"
       y="0"
       inkscape:tiled-clone-of="#path4747"
       xlink:href="#path4747"
       transform="matrix(1.6256656,0,0,1,4.8679637,50.744848)"
       id="use4771"
       width="1052.3622"
       height="744.09448" />
    <use
       x="0"
       y="0"
       inkscape:tiled-clone-of="#path4747"
       xlink:href="#path4747"
       transform="matrix(1.3753994,0,0,1,10.45273,75.197776)"
       id="use4773"
       width="1052.3622"
       height="744.09448" />
  </g>
</svg>
